# xmcd CD database file generated by Grip 2.94
# 
# Track frame offsets:
#       150
#       11715
#       29022
#       47115
#       59447
#       75477
#       85535
#       108400
#       131172
#       150135
#       168745
#       179430
#       189390
#       201287
#       213285
#       230645
# 
# Disc length: 3156 seconds
# 
# Revision: 3
# Processed by: cddbd v1.4b41PL1 Copyright (c) Steve Scherf et al.
# Submitted via: Grip 2.94
# 
DISCID=d50c5210
DTITLE=Merle Haggard - I think I'll Stay Here And Drink
DYEAR=1900
DGENRE=
TTITLE0=Okie From Kuskogee
TTITLE1=I think I'll Stay Here And Drink
TTITLE2=Mama's Hungry Eyes
TTITLE3=Kern River
TTITLE4=Today I Started Loving You Again
TTITLE5=Mama Tried
TTITLE6=If I Could Only Fly
TTITLE7=When Times Were Good
TTITLE8=Honky-Tonk Night Time MAn
TTITLE9=Footlights
TTITLE10=Ida Red
TTITLE11=This Mornin, This Evenin So Soon
TTITLE12=I Knew the Moment I Lost You
TTITLE13=Bill Cheatum
TTITLE14=The Chill Factor
TTITLE15=The Fightin Side Of Me
EXTD=
EXTT0=
EXTT1=
EXTT2=
EXTT3=
EXTT4=
EXTT5=
EXTT6=
EXTT7=
EXTT8=
EXTT9=
EXTT10=
EXTT11=
EXTT12=
EXTT13=
EXTT14=
EXTT15=
PLAYORDER=
